<?xml version="1.0" encoding="UTF-8"?>
<svg xmlns="http://www.w3.org/2000/svg" width="826" height="484" viewBox="0 0 826 484" fill="none">
  <g clip-path="url(#clip0_1_2)">
    <path d="M716.4 260.6H599.8V146.1L570.7 100C569.8 98.5 569.3 96.8 569.3 95V79.4C569.3 74.9 573 71.2 577.5 71.2H708.5C712.9 71.3 716.5 75 716.5 79.4V260.6H716.4ZM614.8 245.6H701.4V86.3H584.2V93.4L614.8 141.8V245.6Z" fill="black"></path>
    <path d="M802.7 260.6H729.3L753.4 117.6C754.2 112.8 758.3 109.3 763.2 109.3H792.7C798.2 109.3 802.6 113.8 802.6 119.2V260.6H802.7ZM747.1 245.6H787.7V124.3H767.5L747.1 245.6Z" fill="black"></path>
    <path d="M787.3 92H772.3V116.8H787.3V92Z" fill="black"></path>
    <path d="M687.4 0.299988H672.4V78.8H687.4V0.299988Z" fill="black"></path>
    <path d="M653.8 17.2H638.8V78.8H653.8V17.2Z" fill="black"></path>
    <path d="M660.1 21.5H632.5V36.5H660.1V21.5Z" fill="black"></path>
    <path d="M660.1 39H632.5V54H660.1V39Z" fill="black"></path>
    <path d="M683.7 136.4H593.7L568.8 96.9H683.8C688.4 96.9 692.1 100.6 692.1 105.2V128C692 132.6 688.2 136.4 683.7 136.4ZM601.9 121.4H677V111.9H595.9L601.9 121.4Z" fill="black"></path>
    <path d="M660.3 104.4H645.3V128.9H660.3V104.4Z" fill="black"></path>
    <path d="M628.9 104.6H613.9V129.1H628.9V104.6Z" fill="black"></path>
    <path d="M652.5 148.2H631V163.2H652.5V148.2Z" fill="black"></path>
    <path d="M686.4 148.2H664.9V163.2H686.4V148.2Z" fill="black"></path>
    <path d="M652.5 172.9H631V187.9H652.5V172.9Z" fill="black"></path>
    <path d="M686.4 172.9H664.9V187.9H686.4V172.9Z" fill="black"></path>
    <path d="M652.5 197.5H631V212.5H652.5V197.5Z" fill="black"></path>
    <path d="M686.4 197.5H664.9V212.5H686.4V197.5Z" fill="black"></path>
    <path d="M652.5 222.2H631V237.2H652.5V222.2Z" fill="black"></path>
    <path d="M686.4 222.2H664.9V237.2H686.4V222.2Z" fill="black"></path>
    <path d="M795.2 133.3H757V148.3H795.2V133.3Z" fill="black"></path>
    <path d="M765.9 446.4H746.3V461.4H765.9V446.4Z" fill="black"></path>
    <path d="M773.4 426.2H758.4V481.8H773.4V426.2Z" fill="black"></path>
    <path d="M745.8 474.3H47.5C21.6 474.3 0.5 453.2 0.5 427.3C0.5 401.4 21.6 380.3 47.5 380.3C52.1 380.3 55.9 376.5 55.9 371.9V350.6H825.4V364.2C825.4 383.4 813.2 400.5 794.9 406.7L743.9 424V433.8H745.8C750.4 433.8 754.1 437.5 754.1 442.1V465.8C754.2 470.5 750.4 474.3 745.8 474.3ZM71 365.6V371.9C71 384.8 60.5 395.3 47.6 395.3C30 395.3 15.6 409.6 15.6 427.3C15.6 445 29.9 459.3 47.6 459.3H739.2V448.6C733.4 447.5 728.9 442.3 728.9 436.1V422.3C728.9 416.8 732.4 412 737.5 410.3L790.1 392.5C801.8 388.5 809.8 377.8 810.3 365.6H71Z" fill="black"></path>
    <path d="M812.7 483.1H790.7C786.1 483.1 782.3 479.3 782.3 474.7V400.5H797.3V414.5H812.8C817.3 414.6 821 418.4 821 422.9V474.7C821.1 479.3 817.3 483.1 812.7 483.1ZM797.3 468.1H806.1V429.5H797.3V468.1Z" fill="black"></path>
    <path d="M533.6 314.3H414.6V236.5H533.6V314.3ZM429.6 299.3H518.6V251.5H429.6V299.3Z" fill="black"></path>
    <path d="M533.6 251.5H414.6V173.7H533.6V251.5ZM429.6 236.5H518.6V188.7H429.6V236.5Z" fill="black"></path>
    <path d="M429.6 314.3H310.6V236.5H429.6V314.3ZM325.6 299.3H414.6V251.5H325.6V299.3Z" fill="black"></path>
    <path d="M429.6 251.5H310.6V173.7H429.6V251.5ZM325.6 236.5H414.6V188.7H325.6V236.5Z" fill="black"></path>
    <path d="M533.6 187.1H414.6V109.3H533.6V187.1ZM429.6 172.1H518.6V124.3H429.6V172.1Z" fill="black"></path>
    <path d="M429.6 187.1H310.6V109.3H429.6V187.1ZM325.6 172.1H414.6V124.3H325.6V172.1Z" fill="black"></path>
    <path d="M325.6 251.5H206.6V173.7H325.6V251.5ZM221.6 236.5H310.6V188.7H221.6V236.5Z" fill="black"></path>
    <path d="M221.6 251.5H102.6V173.7H221.6V251.5ZM117.6 236.5H206.6V188.7H117.6V236.5Z" fill="black"></path>
    <path d="M325.6 187.1H206.6V109.3H325.6V187.1ZM221.6 172.1H310.6V124.3H221.6V172.1Z" fill="black"></path>
    <path d="M825.4 365.6H59.2L2.50003 272.5C0.900033 269.9 0.900035 266.6 2.40003 264C3.90003 261.4 6.70004 259.7 9.80004 259.7H143.9C147.5 259.7 150.9 261.4 153 264.2L163.2 277.8H226.2C229.8 277.8 233.2 279.5 235.3 282.3L247.9 299.2H539.5L560.2 255.7C563.2 249.5 569.5 245.5 576.4 245.5H811.3C815 245.5 818.5 247 821.2 249.6C823.9 252.3 825.3 255.8 825.3 259.6V365.6H825.4ZM67.7 350.6H810.5V260.7H576.5C575.4 260.7 574.3 261.4 573.8 262.4L549 314.4H240.3L224.3 292.9H155.6L142 274.7H21.4L67.7 350.6Z" fill="black"></path>
    <path d="M325.6 314.3H240.3L224.3 292.8H206.6V236.5H325.6V314.3ZM247.9 299.3H310.6V251.5H221.6V277.8H226.2C229.8 277.8 233.2 279.5 235.3 282.4L247.9 299.3Z" fill="black"></path>
    <path d="M221.6 292.9H155.7L142.1 274.7H102.6V236.6H214.1V244.1H221.6V292.9ZM163.2 277.9H206.6V251.6H117.6V259.7H143.9C147.5 259.7 150.9 261.4 153 264.3L163.2 277.9Z" fill="black"></path>
    <path d="M71.7 282.8H52.4V297.8H71.7V282.8Z" fill="black"></path>
    <path d="M104.3 282.8H85V297.8H104.3V282.8Z" fill="black"></path>
    <path d="M727.6 324.1H676.4V339.1H727.6V324.1Z" fill="black"></path>
    <path d="M755 324.1H740.3V339.1H755V324.1Z" fill="black"></path>
    <path d="M810.3 380.3H48V395.3H810.3V380.3Z" fill="black"></path>
  </g>
  <defs>
    <clipPath id="clip0_1_2">
      <rect width="826" height="484" fill="white"></rect>
    </clipPath>
  </defs>
</svg>
